<svg width="185" height="48" viewBox="0 0 185 48" fill="none" xmlns="http://www.w3.org/2000/svg">
<path d="M174.275 0H10.7246C4.80158 0 0 5.37258 0 12V36C0 42.6274 4.80158 48 10.7246 48H174.275C180.198 48 185 42.6274 185 36V12C185 5.37258 180.198 0 174.275 0Z" fill="#25D366"/>
<mask id="mask0_12055_8386" style="mask-type:luminance" maskUnits="userSpaceOnUse" x="16" y="11" width="24" height="25">
<path d="M16 11.5H40V35.5H16V11.5Z" fill="white"/>
</mask>
<g mask="url(#mask0_12055_8386)">
<path fill-rule="evenodd" clip-rule="evenodd" d="M27.7468 12.4473C30.6492 12.4613 33.4502 13.6009 35.5454 15.6094C37.691 17.6664 38.9276 20.4246 39.0357 23.395C39.1413 26.2957 38.1286 29.1451 36.2078 31.3212C34.1011 33.7079 31.1707 35.0786 28.0057 35.1695C27.8974 35.1726 27.789 35.1741 27.6807 35.1741C25.9753 35.1741 24.2858 34.7896 22.7555 34.0532L16.8074 35.3762C16.7938 35.3788 16.7797 35.3782 16.7664 35.3743C16.7531 35.3705 16.7409 35.3635 16.7308 35.354C16.7207 35.3444 16.713 35.3327 16.7084 35.3196C16.7037 35.3065 16.7023 35.2925 16.7041 35.2788L17.7089 29.2644C16.8514 27.6976 16.3728 25.9323 16.3212 24.1366C16.2342 21.1025 17.3339 18.2163 19.4178 16.0093C21.5784 13.7211 24.5289 12.4473 27.6905 12.4473H27.7468ZM27.6835 14.419C27.5926 14.419 27.5016 14.4203 27.4107 14.4229C22.2342 14.5714 18.1436 18.9036 18.2921 24.0801C18.3375 25.6607 18.7828 27.2123 19.5799 28.567L19.7529 28.8606L19.0084 32.9418L23.0471 31.9885L23.3521 32.1472C24.6828 32.8396 26.1739 33.2025 27.6804 33.2025C27.7699 33.2025 27.8596 33.2012 27.9491 33.1986C33.1257 33.0502 37.2163 28.718 37.0678 23.5415C36.9219 18.4564 32.7384 14.419 27.6835 14.419ZM23.755 18.3214C23.9449 18.3273 24.1352 18.3327 24.3012 18.3449C24.5041 18.3595 24.7287 18.3759 24.9277 18.8577C25.1639 19.4298 25.6747 20.8581 25.7416 21.003C25.8085 21.1479 25.8509 21.316 25.75 21.5037C25.6491 21.691 25.5979 21.8086 25.4505 21.9707C25.3028 22.133 25.1394 22.3335 25.0074 22.4574C24.86 22.5953 24.7068 22.7453 24.8644 23.0359C25.0219 23.3266 25.5654 24.2783 26.3899 25.0608C27.4495 26.0664 28.2992 26.3982 28.6367 26.5556C28.7585 26.6125 28.8597 26.6395 28.9481 26.6395C29.0695 26.6395 29.1666 26.5886 29.2593 26.4947C29.4369 26.3147 29.9713 25.6911 30.1963 25.4042C30.314 25.2541 30.4206 25.2009 30.5363 25.2009C30.6289 25.2009 30.7274 25.235 30.8424 25.2809C31.1008 25.3841 32.4814 26.1175 32.7622 26.269C33.043 26.4204 33.2308 26.4977 33.2985 26.6187C33.3661 26.7403 33.3485 27.3114 33.0904 27.9704C32.8323 28.6295 31.6485 29.2365 31.1242 29.2679C30.9707 29.2772 30.8197 29.2986 30.6232 29.2986C30.1481 29.2986 29.4073 29.1735 27.7246 28.4488C24.8615 27.2159 23.1229 24.1863 22.9861 23.9917C22.8496 23.7968 21.8694 22.4086 21.9125 21.0044C21.9556 19.6004 22.7135 18.9326 22.9837 18.6551C23.2427 18.389 23.5395 18.3211 23.7311 18.3211L23.755 18.3214Z" fill="white"/>
</g>
<path d="M158.547 25.3418V25.1572C158.547 24.46 158.646 23.8184 158.846 23.2324C159.045 22.6406 159.335 22.1279 159.716 21.6943C160.097 21.2607 160.565 20.9238 161.122 20.6836C161.679 20.4375 162.317 20.3145 163.038 20.3145C163.759 20.3145 164.4 20.4375 164.963 20.6836C165.525 20.9238 165.997 21.2607 166.378 21.6943C166.765 22.1279 167.058 22.6406 167.257 23.2324C167.456 23.8184 167.556 24.46 167.556 25.1572V25.3418C167.556 26.0332 167.456 26.6748 167.257 27.2666C167.058 27.8525 166.765 28.3652 166.378 28.8047C165.997 29.2383 165.528 29.5752 164.972 29.8154C164.415 30.0557 163.776 30.1758 163.056 30.1758C162.335 30.1758 161.693 30.0557 161.131 29.8154C160.574 29.5752 160.103 29.2383 159.716 28.8047C159.335 28.3652 159.045 27.8525 158.846 27.2666C158.646 26.6748 158.547 26.0332 158.547 25.3418ZM161.078 25.1572V25.3418C161.078 25.7402 161.113 26.1123 161.184 26.458C161.254 26.8037 161.365 27.1084 161.518 27.3721C161.676 27.6299 161.881 27.832 162.133 27.9785C162.385 28.125 162.692 28.1982 163.056 28.1982C163.407 28.1982 163.709 28.125 163.961 27.9785C164.213 27.832 164.415 27.6299 164.567 27.3721C164.72 27.1084 164.831 26.8037 164.901 26.458C164.978 26.1123 165.016 25.7402 165.016 25.3418V25.1572C165.016 24.7705 164.978 24.4072 164.901 24.0674C164.831 23.7217 164.717 23.417 164.559 23.1533C164.406 22.8838 164.204 22.6729 163.952 22.5205C163.7 22.3682 163.396 22.292 163.038 22.292C162.681 22.292 162.376 22.3682 162.124 22.5205C161.878 22.6729 161.676 22.8838 161.518 23.1533C161.365 23.417 161.254 23.7217 161.184 24.0674C161.113 24.4072 161.078 24.7705 161.078 25.1572Z" fill="white"/>
<path d="M157.738 20.4912V22.2842H152.201V20.4912H157.738ZM153.572 18.1445H156.104V27.1357C156.104 27.4111 156.139 27.6221 156.209 27.7686C156.285 27.915 156.396 28.0176 156.543 28.0762C156.689 28.1289 156.874 28.1553 157.097 28.1553C157.255 28.1553 157.396 28.1494 157.519 28.1377C157.647 28.1201 157.756 28.1025 157.844 28.085L157.853 29.9482C157.636 30.0186 157.401 30.0742 157.149 30.1152C156.897 30.1562 156.619 30.1768 156.314 30.1768C155.758 30.1768 155.271 30.0859 154.855 29.9043C154.445 29.7168 154.129 29.418 153.906 29.0078C153.684 28.5977 153.572 28.0586 153.572 27.3906V18.1445Z" fill="white"/>
<path d="M147.622 28.1982C147.933 28.1982 148.208 28.1396 148.448 28.0225C148.688 27.8994 148.876 27.7295 149.011 27.5127C149.151 27.29 149.225 27.0293 149.23 26.7305H151.612C151.606 27.3984 151.428 27.9932 151.076 28.5146C150.725 29.0303 150.253 29.4375 149.661 29.7363C149.069 30.0293 148.407 30.1758 147.675 30.1758C146.937 30.1758 146.292 30.0527 145.741 29.8066C145.196 29.5605 144.742 29.2207 144.379 28.7871C144.016 28.3477 143.743 27.8379 143.562 27.2578C143.38 26.6719 143.289 26.0449 143.289 25.377V25.1221C143.289 24.4482 143.38 23.8213 143.562 23.2412C143.743 22.6553 144.016 22.1455 144.379 21.7119C144.742 21.2725 145.196 20.9297 145.741 20.6836C146.286 20.4375 146.925 20.3145 147.657 20.3145C148.437 20.3145 149.119 20.4639 149.705 20.7627C150.297 21.0615 150.76 21.4893 151.094 22.0459C151.434 22.5967 151.606 23.25 151.612 24.0059H149.23C149.225 23.6895 149.157 23.4023 149.028 23.1445C148.905 22.8867 148.724 22.6816 148.483 22.5293C148.249 22.3711 147.959 22.292 147.613 22.292C147.244 22.292 146.942 22.3711 146.708 22.5293C146.474 22.6816 146.292 22.8926 146.163 23.1621C146.034 23.4258 145.943 23.7275 145.891 24.0674C145.844 24.4014 145.82 24.7529 145.82 25.1221V25.377C145.82 25.7461 145.844 26.1006 145.891 26.4404C145.938 26.7803 146.025 27.082 146.154 27.3457C146.289 27.6094 146.474 27.8174 146.708 27.9697C146.942 28.1221 147.247 28.1982 147.622 28.1982Z" fill="white"/>
<path d="M138.351 30.1758C137.612 30.1758 136.95 30.0586 136.364 29.8242C135.778 29.584 135.28 29.2529 134.87 28.8311C134.466 28.4092 134.155 27.9199 133.938 27.3633C133.722 26.8008 133.613 26.2031 133.613 25.5703V25.2188C133.613 24.498 133.716 23.8389 133.921 23.2412C134.126 22.6436 134.419 22.125 134.8 21.6855C135.187 21.2461 135.655 20.9092 136.206 20.6748C136.757 20.4346 137.378 20.3145 138.069 20.3145C138.743 20.3145 139.341 20.4258 139.862 20.6484C140.384 20.8711 140.82 21.1875 141.172 21.5977C141.529 22.0078 141.799 22.5 141.98 23.0742C142.162 23.6426 142.253 24.2754 142.253 24.9727V26.0273H134.694V24.3398H139.766V24.1465C139.766 23.7949 139.701 23.4814 139.572 23.2061C139.449 22.9248 139.262 22.7021 139.01 22.5381C138.758 22.374 138.436 22.292 138.043 22.292C137.709 22.292 137.422 22.3652 137.182 22.5117C136.941 22.6582 136.745 22.8633 136.593 23.127C136.446 23.3906 136.335 23.7012 136.259 24.0586C136.188 24.4102 136.153 24.7969 136.153 25.2188V25.5703C136.153 25.9512 136.206 26.3027 136.312 26.625C136.423 26.9473 136.578 27.2256 136.777 27.46C136.982 27.6943 137.229 27.876 137.516 28.0049C137.809 28.1338 138.14 28.1982 138.509 28.1982C138.966 28.1982 139.391 28.1104 139.783 27.9346C140.182 27.7529 140.524 27.4805 140.812 27.1172L142.042 28.4531C141.843 28.7402 141.57 29.0156 141.225 29.2793C140.885 29.543 140.475 29.7598 139.994 29.9297C139.514 30.0938 138.966 30.1758 138.351 30.1758Z" fill="white"/>
<path d="M130.088 22.5645V30H127.557V20.4902H129.938L130.088 22.5645ZM132.953 20.4287L132.909 22.7754C132.786 22.7578 132.637 22.7432 132.461 22.7314C132.291 22.7139 132.136 22.7051 131.995 22.7051C131.638 22.7051 131.327 22.752 131.063 22.8457C130.806 22.9336 130.589 23.0654 130.413 23.2412C130.243 23.417 130.114 23.6309 130.026 23.8828C129.944 24.1348 129.897 24.4219 129.886 24.7441L129.376 24.5859C129.376 23.9707 129.438 23.4053 129.561 22.8896C129.684 22.3682 129.862 21.9141 130.097 21.5273C130.337 21.1406 130.63 20.8418 130.976 20.6309C131.321 20.4199 131.717 20.3145 132.162 20.3145C132.303 20.3145 132.446 20.3262 132.593 20.3496C132.739 20.3672 132.859 20.3936 132.953 20.4287Z" fill="white"/>
<path d="M125.464 20.4912V30.001H122.924V20.4912H125.464ZM122.766 18.0127C122.766 17.6436 122.895 17.3389 123.152 17.0986C123.41 16.8584 123.756 16.7383 124.189 16.7383C124.617 16.7383 124.96 16.8584 125.218 17.0986C125.481 17.3389 125.613 17.6436 125.613 18.0127C125.613 18.3818 125.481 18.6865 125.218 18.9268C124.96 19.167 124.617 19.2871 124.189 19.2871C123.756 19.2871 123.41 19.167 123.152 18.9268C122.895 18.6865 122.766 18.3818 122.766 18.0127Z" fill="white"/>
<path d="M118.266 27.9258V16.5H120.814V30H118.521L118.266 27.9258ZM112.254 25.3594V25.1748C112.254 24.4482 112.336 23.7891 112.5 23.1973C112.664 22.5996 112.904 22.0869 113.221 21.6592C113.537 21.2314 113.927 20.9004 114.39 20.666C114.853 20.4316 115.38 20.3145 115.972 20.3145C116.528 20.3145 117.015 20.4316 117.431 20.666C117.853 20.9004 118.21 21.2344 118.503 21.668C118.802 22.0957 119.042 22.6025 119.224 23.1885C119.405 23.7686 119.537 24.4043 119.619 25.0957V25.5C119.537 26.1621 119.405 26.7773 119.224 27.3457C119.042 27.9141 118.802 28.4121 118.503 28.8398C118.21 29.2617 117.853 29.5898 117.431 29.8242C117.009 30.0586 116.517 30.1758 115.954 30.1758C115.362 30.1758 114.835 30.0557 114.372 29.8154C113.915 29.5752 113.528 29.2383 113.212 28.8047C112.901 28.3711 112.664 27.8613 112.5 27.2754C112.336 26.6895 112.254 26.0508 112.254 25.3594ZM114.785 25.1748V25.3594C114.785 25.752 114.814 26.1182 114.873 26.458C114.938 26.7979 115.04 27.0996 115.181 27.3633C115.327 27.6211 115.515 27.8232 115.743 27.9697C115.978 28.1104 116.262 28.1807 116.596 28.1807C117.029 28.1807 117.387 28.084 117.668 27.8906C117.949 27.6914 118.163 27.4189 118.31 27.0732C118.462 26.7275 118.55 26.3291 118.573 25.8779V24.7266C118.556 24.3574 118.503 24.0264 118.415 23.7334C118.333 23.4346 118.21 23.1797 118.046 22.9688C117.888 22.7578 117.688 22.5938 117.448 22.4766C117.214 22.3594 116.936 22.3008 116.613 22.3008C116.285 22.3008 116.004 22.377 115.77 22.5293C115.535 22.6758 115.345 22.8779 115.198 23.1357C115.058 23.3936 114.952 23.6982 114.882 24.0498C114.817 24.3955 114.785 24.7705 114.785 25.1748Z" fill="white"/>
<path d="M104.107 22.5645V30H101.576V20.4902H103.958L104.107 22.5645ZM106.973 20.4287L106.929 22.7754C106.806 22.7578 106.656 22.7432 106.48 22.7314C106.311 22.7139 106.155 22.7051 106.015 22.7051C105.657 22.7051 105.347 22.752 105.083 22.8457C104.825 22.9336 104.608 23.0654 104.433 23.2412C104.263 23.417 104.134 23.6309 104.046 23.8828C103.964 24.1348 103.917 24.4219 103.905 24.7441L103.396 24.5859C103.396 23.9707 103.457 23.4053 103.58 22.8896C103.703 22.3682 103.882 21.9141 104.116 21.5273C104.356 21.1406 104.649 20.8418 104.995 20.6309C105.341 20.4199 105.736 20.3145 106.182 20.3145C106.322 20.3145 106.466 20.3262 106.612 20.3496C106.759 20.3672 106.879 20.3936 106.973 20.4287Z" fill="white"/>
<path d="M97.0762 27.8555V23.6191C97.0762 23.3145 97.0264 23.0537 96.9268 22.8369C96.8271 22.6143 96.6719 22.4414 96.4609 22.3184C96.2559 22.1953 95.9893 22.1338 95.6611 22.1338C95.3799 22.1338 95.1367 22.1836 94.9316 22.2832C94.7266 22.377 94.5684 22.5146 94.457 22.6963C94.3457 22.8721 94.29 23.0801 94.29 23.3203H91.7588C91.7588 22.916 91.8525 22.5322 92.04 22.1689C92.2275 21.8057 92.5 21.4863 92.8574 21.2109C93.2148 20.9297 93.6396 20.71 94.1318 20.5518C94.6299 20.3936 95.1865 20.3145 95.8018 20.3145C96.54 20.3145 97.1963 20.4375 97.7705 20.6836C98.3447 20.9297 98.7959 21.2988 99.124 21.791C99.458 22.2832 99.625 22.8984 99.625 23.6367V27.7061C99.625 28.2275 99.6572 28.6553 99.7217 28.9893C99.7861 29.3174 99.8799 29.6045 100.003 29.8506V30H97.4453C97.3223 29.7422 97.2285 29.4199 97.1641 29.0332C97.1055 28.6406 97.0762 28.248 97.0762 27.8555ZM97.4102 24.208L97.4277 25.6406H96.0127C95.6787 25.6406 95.3887 25.6787 95.1426 25.7549C94.8965 25.8311 94.6943 25.9395 94.5361 26.0801C94.3779 26.2148 94.2607 26.373 94.1846 26.5547C94.1143 26.7363 94.0791 26.9355 94.0791 27.1523C94.0791 27.3691 94.1289 27.5654 94.2285 27.7412C94.3281 27.9111 94.4717 28.0459 94.6592 28.1455C94.8467 28.2393 95.0664 28.2861 95.3184 28.2861C95.6992 28.2861 96.0303 28.21 96.3115 28.0576C96.5928 27.9053 96.8096 27.7178 96.9619 27.4951C97.1201 27.2725 97.2021 27.0615 97.208 26.8623L97.876 27.9346C97.7822 28.1748 97.6533 28.4238 97.4893 28.6816C97.3311 28.9395 97.1289 29.1826 96.8828 29.4111C96.6367 29.6338 96.3408 29.8184 95.9951 29.9648C95.6494 30.1055 95.2393 30.1758 94.7646 30.1758C94.1611 30.1758 93.6133 30.0557 93.1211 29.8154C92.6348 29.5693 92.248 29.2324 91.9609 28.8047C91.6797 28.3711 91.5391 27.8789 91.5391 27.3281C91.5391 26.8301 91.6328 26.3877 91.8203 26.001C92.0078 25.6143 92.2832 25.2891 92.6465 25.0254C93.0156 24.7559 93.4756 24.5537 94.0264 24.4189C94.5771 24.2783 95.2158 24.208 95.9424 24.208H97.4102Z" fill="white"/>
<path d="M90.3525 28.0225V30H83.1279V28.0225H90.3525ZM90.2119 21.9492L84.1475 30H82.4512V28.4971L88.4893 20.4902H90.2119V21.9492ZM89.3154 20.4902V22.4766H82.5918V20.4902H89.3154Z" fill="white"/>
<path d="M80.6943 20.4912V30.001H78.1543V20.4912H80.6943ZM77.9961 18.0127C77.9961 17.6436 78.125 17.3389 78.3828 17.0986C78.6406 16.8584 78.9863 16.7383 79.4199 16.7383C79.8477 16.7383 80.1904 16.8584 80.4482 17.0986C80.7119 17.3389 80.8438 17.6436 80.8438 18.0127C80.8438 18.3818 80.7119 18.6865 80.4482 18.9268C80.1904 19.167 79.8477 19.2871 79.4199 19.2871C78.9863 19.2871 78.6406 19.167 78.3828 18.9268C78.125 18.6865 77.9961 18.3818 77.9961 18.0127Z" fill="white"/>
<path d="M76.5801 20.4912V22.2842H71.043V20.4912H76.5801ZM72.4141 18.1445H74.9453V27.1357C74.9453 27.4111 74.9805 27.6221 75.0508 27.7686C75.127 27.915 75.2383 28.0176 75.3848 28.0762C75.5312 28.1289 75.7158 28.1553 75.9385 28.1553C76.0967 28.1553 76.2373 28.1494 76.3604 28.1377C76.4893 28.1201 76.5977 28.1025 76.6855 28.085L76.6943 29.9482C76.4775 30.0186 76.2432 30.0742 75.9912 30.1152C75.7393 30.1562 75.4609 30.1768 75.1562 30.1768C74.5996 30.1768 74.1133 30.0859 73.6973 29.9043C73.2871 29.7168 72.9707 29.418 72.748 29.0078C72.5254 28.5977 72.4141 28.0586 72.4141 27.3906V18.1445Z" fill="white"/>
<path d="M61.3574 25.3418V25.1572C61.3574 24.46 61.457 23.8184 61.6562 23.2324C61.8555 22.6406 62.1455 22.1279 62.5264 21.6943C62.9072 21.2607 63.376 20.9238 63.9326 20.6836C64.4893 20.4375 65.1279 20.3145 65.8486 20.3145C66.5693 20.3145 67.2109 20.4375 67.7734 20.6836C68.3359 20.9238 68.8076 21.2607 69.1885 21.6943C69.5752 22.1279 69.8682 22.6406 70.0674 23.2324C70.2666 23.8184 70.3662 24.46 70.3662 25.1572V25.3418C70.3662 26.0332 70.2666 26.6748 70.0674 27.2666C69.8682 27.8525 69.5752 28.3652 69.1885 28.8047C68.8076 29.2383 68.3389 29.5752 67.7822 29.8154C67.2256 30.0557 66.5869 30.1758 65.8662 30.1758C65.1455 30.1758 64.5039 30.0557 63.9414 29.8154C63.3848 29.5752 62.9131 29.2383 62.5264 28.8047C62.1455 28.3652 61.8555 27.8525 61.6562 27.2666C61.457 26.6748 61.3574 26.0332 61.3574 25.3418ZM63.8887 25.1572V25.3418C63.8887 25.7402 63.9238 26.1123 63.9941 26.458C64.0645 26.8037 64.1758 27.1084 64.3281 27.3721C64.4863 27.6299 64.6914 27.832 64.9434 27.9785C65.1953 28.125 65.5029 28.1982 65.8662 28.1982C66.2178 28.1982 66.5195 28.125 66.7715 27.9785C67.0234 27.832 67.2256 27.6299 67.3779 27.3721C67.5303 27.1084 67.6416 26.8037 67.7119 26.458C67.7881 26.1123 67.8262 25.7402 67.8262 25.3418V25.1572C67.8262 24.7705 67.7881 24.4072 67.7119 24.0674C67.6416 23.7217 67.5273 23.417 67.3691 23.1533C67.2168 22.8838 67.0146 22.6729 66.7627 22.5205C66.5107 22.3682 66.2061 22.292 65.8486 22.292C65.4912 22.292 65.1865 22.3682 64.9346 22.5205C64.6885 22.6729 64.4863 22.8838 64.3281 23.1533C64.1758 23.417 64.0645 23.7217 63.9941 24.0674C63.9238 24.4072 63.8887 24.7705 63.8887 25.1572Z" fill="white"/>
<path d="M57.5605 25.7559H60.1885C60.1357 26.6172 59.8984 27.3818 59.4766 28.0498C59.0605 28.7178 58.4775 29.2393 57.7275 29.6143C56.9834 29.9893 56.0869 30.1768 55.0381 30.1768C54.2178 30.1768 53.4824 30.0361 52.832 29.7549C52.1816 29.4678 51.625 29.0576 51.1621 28.5244C50.7051 27.9912 50.3564 27.3467 50.1162 26.5908C49.876 25.835 49.7559 24.9883 49.7559 24.0508V23.1631C49.7559 22.2256 49.8789 21.3789 50.125 20.623C50.377 19.8613 50.7344 19.2139 51.1973 18.6807C51.666 18.1475 52.2256 17.7373 52.876 17.4502C53.5264 17.1631 54.2529 17.0195 55.0557 17.0195C56.1221 17.0195 57.0215 17.2129 57.7539 17.5996C58.4922 17.9863 59.0635 18.5195 59.4678 19.1992C59.8779 19.8789 60.124 20.6523 60.2061 21.5195H57.5693C57.54 21.0039 57.4375 20.5674 57.2617 20.21C57.0859 19.8467 56.8193 19.5742 56.4619 19.3926C56.1104 19.2051 55.6416 19.1113 55.0557 19.1113C54.6162 19.1113 54.2324 19.1934 53.9043 19.3574C53.5762 19.5215 53.3008 19.7705 53.0781 20.1045C52.8555 20.4385 52.6885 20.8604 52.5771 21.3701C52.4717 21.874 52.4189 22.4658 52.4189 23.1455V24.0508C52.4189 24.7129 52.4688 25.2959 52.5684 25.7998C52.668 26.2979 52.8203 26.7197 53.0254 27.0654C53.2363 27.4053 53.5059 27.6631 53.834 27.8389C54.168 28.0088 54.5693 28.0938 55.0381 28.0938C55.5889 28.0938 56.043 28.0059 56.4004 27.8301C56.7578 27.6543 57.0303 27.3936 57.2178 27.0479C57.4111 26.7021 57.5254 26.2715 57.5605 25.7559Z" fill="white"/>
</svg>
