<svg width="154" height="48" viewBox="0 0 154 48" fill="none" xmlns="http://www.w3.org/2000/svg">
<path d="M145.072 0H8.92754C3.99699 0 0 5.37258 0 12V36C0 42.6274 3.99699 48 8.92754 48H145.072C150.003 48 154 42.6274 154 36V12C154 5.37258 150.003 0 145.072 0Z" fill="#25D366"/>
<mask id="mask0_12019_17473" style="mask-type:luminance" maskUnits="userSpaceOnUse" x="16" y="11" width="24" height="25">
<path d="M16 11.5H40V35.5H16V11.5Z" fill="white"/>
</mask>
<g mask="url(#mask0_12019_17473)">
<path fill-rule="evenodd" clip-rule="evenodd" d="M27.7468 12.4473C30.6492 12.4613 33.4502 13.6009 35.5454 15.6094C37.691 17.6664 38.9276 20.4246 39.0357 23.395C39.1413 26.2957 38.1286 29.1451 36.2078 31.3212C34.1011 33.7079 31.1707 35.0786 28.0057 35.1695C27.8974 35.1726 27.789 35.1741 27.6807 35.1741C25.9753 35.1741 24.2858 34.7896 22.7555 34.0532L16.8074 35.3762C16.7938 35.3788 16.7797 35.3782 16.7664 35.3743C16.7531 35.3705 16.7409 35.3635 16.7308 35.354C16.7207 35.3444 16.713 35.3327 16.7084 35.3196C16.7037 35.3065 16.7023 35.2925 16.7041 35.2788L17.7089 29.2644C16.8514 27.6976 16.3728 25.9323 16.3212 24.1366C16.2342 21.1025 17.3339 18.2163 19.4178 16.0093C21.5784 13.7211 24.5289 12.4473 27.6905 12.4473H27.7468ZM27.6835 14.419C27.5926 14.419 27.5016 14.4203 27.4107 14.4229C22.2342 14.5714 18.1436 18.9036 18.2921 24.0801C18.3375 25.6607 18.7828 27.2123 19.5799 28.567L19.7529 28.8606L19.0084 32.9418L23.0471 31.9885L23.3521 32.1472C24.6828 32.8396 26.1739 33.2025 27.6804 33.2025C27.7699 33.2025 27.8596 33.2012 27.9491 33.1986C33.1257 33.0502 37.2163 28.718 37.0678 23.5415C36.9219 18.4564 32.7384 14.419 27.6835 14.419ZM23.755 18.3214C23.9449 18.3273 24.1352 18.3327 24.3012 18.3449C24.5041 18.3595 24.7287 18.3759 24.9277 18.8577C25.1639 19.4298 25.6747 20.8581 25.7416 21.003C25.8085 21.1479 25.8509 21.316 25.75 21.5037C25.6491 21.691 25.5979 21.8086 25.4505 21.9707C25.3028 22.133 25.1394 22.3335 25.0074 22.4574C24.86 22.5953 24.7068 22.7453 24.8644 23.0359C25.0219 23.3266 25.5654 24.2783 26.3899 25.0608C27.4495 26.0664 28.2992 26.3982 28.6367 26.5556C28.7585 26.6125 28.8597 26.6395 28.9481 26.6395C29.0695 26.6395 29.1666 26.5886 29.2593 26.4947C29.4369 26.3147 29.9713 25.6911 30.1963 25.4042C30.314 25.2541 30.4206 25.2009 30.5363 25.2009C30.6289 25.2009 30.7274 25.235 30.8424 25.2809C31.1008 25.3841 32.4814 26.1175 32.7622 26.269C33.043 26.4204 33.2308 26.4977 33.2985 26.6187C33.3661 26.7403 33.3485 27.3114 33.0904 27.9704C32.8323 28.6295 31.6485 29.2365 31.1242 29.2679C30.9707 29.2772 30.8197 29.2986 30.6232 29.2986C30.1481 29.2986 29.4073 29.1735 27.7246 28.4488C24.8615 27.2159 23.1229 24.1863 22.9861 23.9917C22.8496 23.7968 21.8694 22.4086 21.9125 21.0044C21.9556 19.6004 22.7135 18.9326 22.9837 18.6551C23.2427 18.389 23.5395 18.3211 23.7311 18.3211L23.755 18.3214Z" fill="white"/>
</g>
<path d="M135.494 27.3721C135.494 27.1904 135.441 27.0264 135.336 26.8799C135.23 26.7334 135.034 26.5986 134.747 26.4756C134.466 26.3467 134.059 26.2295 133.525 26.124C133.045 26.0186 132.597 25.8867 132.181 25.7285C131.771 25.5645 131.413 25.3682 131.108 25.1396C130.81 24.9111 130.575 24.6416 130.405 24.3311C130.235 24.0146 130.15 23.6543 130.15 23.25C130.15 22.8516 130.235 22.4766 130.405 22.125C130.581 21.7734 130.83 21.4629 131.152 21.1934C131.48 20.918 131.879 20.7041 132.348 20.5518C132.822 20.3936 133.355 20.3145 133.947 20.3145C134.773 20.3145 135.482 20.4463 136.074 20.71C136.672 20.9736 137.129 21.3369 137.445 21.7998C137.768 22.2568 137.929 22.7783 137.929 23.3643H135.397C135.397 23.1182 135.345 22.8984 135.239 22.7051C135.14 22.5059 134.981 22.3506 134.765 22.2393C134.554 22.1221 134.278 22.0635 133.938 22.0635C133.657 22.0635 133.414 22.1133 133.209 22.2129C133.004 22.3066 132.846 22.4355 132.734 22.5996C132.629 22.7578 132.576 22.9336 132.576 23.127C132.576 23.2734 132.605 23.4053 132.664 23.5225C132.729 23.6338 132.831 23.7363 132.972 23.8301C133.112 23.9238 133.294 24.0117 133.517 24.0938C133.745 24.1699 134.026 24.2402 134.36 24.3047C135.046 24.4453 135.658 24.6299 136.197 24.8584C136.736 25.0811 137.164 25.3857 137.48 25.7725C137.797 26.1533 137.955 26.6543 137.955 27.2754C137.955 27.6973 137.861 28.084 137.674 28.4355C137.486 28.7871 137.217 29.0947 136.865 29.3584C136.514 29.6162 136.092 29.8184 135.6 29.9648C135.113 30.1055 134.565 30.1758 133.956 30.1758C133.071 30.1758 132.321 30.0176 131.706 29.7012C131.097 29.3848 130.634 28.9834 130.317 28.4971C130.007 28.0049 129.852 27.501 129.852 26.9854H132.251C132.263 27.3311 132.351 27.6094 132.515 27.8203C132.685 28.0312 132.898 28.1836 133.156 28.2773C133.42 28.3711 133.704 28.418 134.009 28.418C134.337 28.418 134.609 28.374 134.826 28.2861C135.043 28.1924 135.207 28.0693 135.318 27.917C135.436 27.7588 135.494 27.5771 135.494 27.3721Z" fill="white"/>
<path d="M119.787 25.3418V25.1572C119.787 24.46 119.887 23.8184 120.086 23.2324C120.285 22.6406 120.575 22.1279 120.956 21.6943C121.337 21.2607 121.806 20.9238 122.362 20.6836C122.919 20.4375 123.558 20.3145 124.278 20.3145C124.999 20.3145 125.641 20.4375 126.203 20.6836C126.766 20.9238 127.237 21.2607 127.618 21.6943C128.005 22.1279 128.298 22.6406 128.497 23.2324C128.696 23.8184 128.796 24.46 128.796 25.1572V25.3418C128.796 26.0332 128.696 26.6748 128.497 27.2666C128.298 27.8525 128.005 28.3652 127.618 28.8047C127.237 29.2383 126.769 29.5752 126.212 29.8154C125.655 30.0557 125.017 30.1758 124.296 30.1758C123.575 30.1758 122.934 30.0557 122.371 29.8154C121.814 29.5752 121.343 29.2383 120.956 28.8047C120.575 28.3652 120.285 27.8525 120.086 27.2666C119.887 26.6748 119.787 26.0332 119.787 25.3418ZM122.318 25.1572V25.3418C122.318 25.7402 122.354 26.1123 122.424 26.458C122.494 26.8037 122.605 27.1084 122.758 27.3721C122.916 27.6299 123.121 27.832 123.373 27.9785C123.625 28.125 123.933 28.1982 124.296 28.1982C124.647 28.1982 124.949 28.125 125.201 27.9785C125.453 27.832 125.655 27.6299 125.808 27.3721C125.96 27.1084 126.071 26.8037 126.142 26.458C126.218 26.1123 126.256 25.7402 126.256 25.3418V25.1572C126.256 24.7705 126.218 24.4072 126.142 24.0674C126.071 23.7217 125.957 23.417 125.799 23.1533C125.646 22.8838 125.444 22.6729 125.192 22.5205C124.94 22.3682 124.636 22.292 124.278 22.292C123.921 22.292 123.616 22.3682 123.364 22.5205C123.118 22.6729 122.916 22.8838 122.758 23.1533C122.605 23.417 122.494 23.7217 122.424 24.0674C122.354 24.4072 122.318 24.7705 122.318 25.1572Z" fill="white"/>
<path d="M112.58 22.5205V30H110.049V20.4902H112.422L112.58 22.5205ZM112.211 24.9111H111.525C111.525 24.208 111.616 23.5752 111.798 23.0127C111.979 22.4443 112.234 21.9609 112.562 21.5625C112.891 21.1582 113.28 20.8506 113.731 20.6396C114.188 20.4229 114.698 20.3145 115.261 20.3145C115.706 20.3145 116.113 20.3789 116.482 20.5078C116.852 20.6367 117.168 20.8418 117.432 21.123C117.701 21.4043 117.906 21.7764 118.047 22.2393C118.193 22.7021 118.267 23.2676 118.267 23.9355V30H115.718V23.9268C115.718 23.5049 115.659 23.1768 115.542 22.9424C115.425 22.708 115.252 22.5439 115.023 22.4502C114.801 22.3506 114.525 22.3008 114.197 22.3008C113.857 22.3008 113.562 22.3682 113.31 22.5029C113.063 22.6377 112.858 22.8252 112.694 23.0654C112.536 23.2998 112.416 23.5752 112.334 23.8916C112.252 24.208 112.211 24.5479 112.211 24.9111Z" fill="white"/>
<path d="M104.757 30.1758C104.019 30.1758 103.356 30.0586 102.771 29.8242C102.185 29.584 101.687 29.2529 101.276 28.8311C100.872 28.4092 100.562 27.9199 100.345 27.3633C100.128 26.8008 100.02 26.2031 100.02 25.5703V25.2188C100.02 24.498 100.122 23.8389 100.327 23.2412C100.532 22.6436 100.825 22.125 101.206 21.6855C101.593 21.2461 102.062 20.9092 102.612 20.6748C103.163 20.4346 103.784 20.3145 104.476 20.3145C105.149 20.3145 105.747 20.4258 106.269 20.6484C106.79 20.8711 107.227 21.1875 107.578 21.5977C107.936 22.0078 108.205 22.5 108.387 23.0742C108.568 23.6426 108.659 24.2754 108.659 24.9727V26.0273H101.101V24.3398H106.172V24.1465C106.172 23.7949 106.107 23.4814 105.979 23.2061C105.855 22.9248 105.668 22.7021 105.416 22.5381C105.164 22.374 104.842 22.292 104.449 22.292C104.115 22.292 103.828 22.3652 103.588 22.5117C103.348 22.6582 103.151 22.8633 102.999 23.127C102.853 23.3906 102.741 23.7012 102.665 24.0586C102.595 24.4102 102.56 24.7969 102.56 25.2188V25.5703C102.56 25.9512 102.612 26.3027 102.718 26.625C102.829 26.9473 102.984 27.2256 103.184 27.46C103.389 27.6943 103.635 27.876 103.922 28.0049C104.215 28.1338 104.546 28.1982 104.915 28.1982C105.372 28.1982 105.797 28.1104 106.189 27.9346C106.588 27.7529 106.931 27.4805 107.218 27.1172L108.448 28.4531C108.249 28.7402 107.977 29.0156 107.631 29.2793C107.291 29.543 106.881 29.7598 106.4 29.9297C105.92 30.0938 105.372 30.1758 104.757 30.1758Z" fill="white"/>
<path d="M90.2559 16.5H92.7871V27.8203L92.5322 30H90.2559V16.5ZM98.8076 25.1484V25.333C98.8076 26.042 98.7314 26.6924 98.5791 27.2842C98.4326 27.876 98.2041 28.3887 97.8936 28.8223C97.583 29.25 97.1963 29.584 96.7334 29.8242C96.2764 30.0586 95.7373 30.1758 95.1162 30.1758C94.5361 30.1758 94.0322 30.0586 93.6045 29.8242C93.1826 29.5898 92.8281 29.2588 92.541 28.8311C92.2539 28.4033 92.0225 27.9023 91.8467 27.3281C91.6709 26.7539 91.5391 26.127 91.4512 25.4473V25.043C91.5391 24.3633 91.6709 23.7363 91.8467 23.1621C92.0225 22.5879 92.2539 22.0869 92.541 21.6592C92.8281 21.2314 93.1826 20.9004 93.6045 20.666C94.0264 20.4316 94.5244 20.3145 95.0986 20.3145C95.7256 20.3145 96.2705 20.4346 96.7334 20.6748C97.2021 20.9092 97.5889 21.2432 97.8936 21.6768C98.2041 22.1045 98.4326 22.6143 98.5791 23.2061C98.7314 23.792 98.8076 24.4395 98.8076 25.1484ZM96.2764 25.333V25.1484C96.2764 24.7617 96.2471 24.3984 96.1885 24.0586C96.1357 23.7129 96.042 23.4111 95.9072 23.1533C95.7725 22.8896 95.5879 22.6816 95.3535 22.5293C95.125 22.377 94.8291 22.3008 94.4658 22.3008C94.1201 22.3008 93.8271 22.3594 93.5869 22.4766C93.3467 22.5938 93.1475 22.7578 92.9893 22.9688C92.8369 23.1797 92.7227 23.4316 92.6465 23.7246C92.5703 24.0117 92.5234 24.3281 92.5059 24.6738V25.8252C92.5234 26.2881 92.5996 26.6982 92.7344 27.0557C92.875 27.4072 93.0859 27.6855 93.3672 27.8906C93.6543 28.0898 94.0264 28.1895 94.4834 28.1895C94.8408 28.1895 95.1367 28.1191 95.3711 27.9785C95.6055 27.8379 95.7871 27.6387 95.916 27.3809C96.0508 27.123 96.1445 26.8213 96.1973 26.4756C96.25 26.124 96.2764 25.7432 96.2764 25.333Z" fill="white"/>
<path d="M88.0674 20.4912V30.001H85.5273V20.4912H88.0674ZM85.6064 19.3398L87.3291 16.6328H90.0801L87.6631 19.3398H85.6064Z" fill="white"/>
<path d="M81.2734 22.5645V30H78.7422V20.4902H81.124L81.2734 22.5645ZM84.1387 20.4287L84.0947 22.7754C83.9717 22.7578 83.8223 22.7432 83.6465 22.7314C83.4766 22.7139 83.3213 22.7051 83.1807 22.7051C82.8232 22.7051 82.5127 22.752 82.249 22.8457C81.9912 22.9336 81.7744 23.0654 81.5986 23.2412C81.4287 23.417 81.2998 23.6309 81.2119 23.8828C81.1299 24.1348 81.083 24.4219 81.0713 24.7441L80.5615 24.5859C80.5615 23.9707 80.623 23.4053 80.7461 22.8896C80.8691 22.3682 81.0479 21.9141 81.2822 21.5273C81.5225 21.1406 81.8154 20.8418 82.1611 20.6309C82.5068 20.4199 82.9023 20.3145 83.3477 20.3145C83.4883 20.3145 83.6318 20.3262 83.7783 20.3496C83.9248 20.3672 84.0449 20.3936 84.1387 20.4287Z" fill="white"/>
<path d="M73.2842 28.1982C73.5947 28.1982 73.8701 28.1396 74.1104 28.0225C74.3506 27.8994 74.5381 27.7295 74.6729 27.5127C74.8135 27.29 74.8867 27.0293 74.8926 26.7305H77.2744C77.2686 27.3984 77.0898 27.9932 76.7383 28.5146C76.3867 29.0303 75.915 29.4375 75.3232 29.7363C74.7314 30.0293 74.0693 30.1758 73.3369 30.1758C72.5986 30.1758 71.9541 30.0527 71.4033 29.8066C70.8584 29.5605 70.4043 29.2207 70.041 28.7871C69.6777 28.3477 69.4053 27.8379 69.2236 27.2578C69.042 26.6719 68.9512 26.0449 68.9512 25.377V25.1221C68.9512 24.4482 69.042 23.8213 69.2236 23.2412C69.4053 22.6553 69.6777 22.1455 70.041 21.7119C70.4043 21.2725 70.8584 20.9297 71.4033 20.6836C71.9482 20.4375 72.5869 20.3145 73.3193 20.3145C74.0986 20.3145 74.7812 20.4639 75.3672 20.7627C75.959 21.0615 76.4219 21.4893 76.7559 22.0459C77.0957 22.5967 77.2686 23.25 77.2744 24.0059H74.8926C74.8867 23.6895 74.8193 23.4023 74.6904 23.1445C74.5674 22.8867 74.3857 22.6816 74.1455 22.5293C73.9111 22.3711 73.6211 22.292 73.2754 22.292C72.9062 22.292 72.6045 22.3711 72.3701 22.5293C72.1357 22.6816 71.9541 22.8926 71.8252 23.1621C71.6963 23.4258 71.6055 23.7275 71.5527 24.0674C71.5059 24.4014 71.4824 24.7529 71.4824 25.1221V25.377C71.4824 25.7461 71.5059 26.1006 71.5527 26.4404C71.5996 26.7803 71.6875 27.082 71.8164 27.3457C71.9512 27.6094 72.1357 27.8174 72.3701 27.9697C72.6045 28.1221 72.9092 28.1982 73.2842 28.1982Z" fill="white"/>
<path d="M65.252 27.3721C65.252 27.1904 65.1992 27.0264 65.0938 26.8799C64.9883 26.7334 64.792 26.5986 64.5049 26.4756C64.2236 26.3467 63.8164 26.2295 63.2832 26.124C62.8027 26.0186 62.3545 25.8867 61.9385 25.7285C61.5283 25.5645 61.1709 25.3682 60.8662 25.1396C60.5674 24.9111 60.333 24.6416 60.1631 24.3311C59.9932 24.0146 59.9082 23.6543 59.9082 23.25C59.9082 22.8516 59.9932 22.4766 60.1631 22.125C60.3389 21.7734 60.5879 21.4629 60.9102 21.1934C61.2383 20.918 61.6367 20.7041 62.1055 20.5518C62.5801 20.3936 63.1133 20.3145 63.7051 20.3145C64.5312 20.3145 65.2402 20.4463 65.832 20.71C66.4297 20.9736 66.8867 21.3369 67.2031 21.7998C67.5254 22.2568 67.6865 22.7783 67.6865 23.3643H65.1553C65.1553 23.1182 65.1025 22.8984 64.9971 22.7051C64.8975 22.5059 64.7393 22.3506 64.5225 22.2393C64.3115 22.1221 64.0361 22.0635 63.6963 22.0635C63.415 22.0635 63.1719 22.1133 62.9668 22.2129C62.7617 22.3066 62.6035 22.4355 62.4922 22.5996C62.3867 22.7578 62.334 22.9336 62.334 23.127C62.334 23.2734 62.3633 23.4053 62.4219 23.5225C62.4863 23.6338 62.5889 23.7363 62.7295 23.8301C62.8701 23.9238 63.0518 24.0117 63.2744 24.0938C63.5029 24.1699 63.7842 24.2402 64.1182 24.3047C64.8037 24.4453 65.416 24.6299 65.9551 24.8584C66.4941 25.0811 66.9219 25.3857 67.2383 25.7725C67.5547 26.1533 67.7129 26.6543 67.7129 27.2754C67.7129 27.6973 67.6191 28.084 67.4316 28.4355C67.2441 28.7871 66.9746 29.0947 66.623 29.3584C66.2715 29.6162 65.8496 29.8184 65.3574 29.9648C64.8711 30.1055 64.3232 30.1758 63.7139 30.1758C62.8291 30.1758 62.0791 30.0176 61.4639 29.7012C60.8545 29.3848 60.3916 28.9834 60.0752 28.4971C59.7646 28.0049 59.6094 27.501 59.6094 26.9854H62.0088C62.0205 27.3311 62.1084 27.6094 62.2725 27.8203C62.4424 28.0312 62.6562 28.1836 62.9141 28.2773C63.1777 28.3711 63.4619 28.418 63.7666 28.418C64.0947 28.418 64.3672 28.374 64.584 28.2861C64.8008 28.1924 64.9648 28.0693 65.0762 27.917C65.1934 27.7588 65.252 27.5771 65.252 27.3721Z" fill="white"/>
<path d="M58.7295 27.9434V30H51.918V27.9434H58.7295ZM52.7793 17.2031V30H50.1426V17.2031H52.7793ZM57.8418 22.415V24.4189H51.918V22.415H57.8418ZM58.7207 17.2031V19.2686H51.918V17.2031H58.7207Z" fill="white"/>
</svg>
